<svg width="405" height="75" viewBox="0 0 405 75" fill="none" xmlns="http://www.w3.org/2000/svg">
<path d="M58.2623 5.544V66H54.3023V13.816L31.0703 66H27.9023L4.58225 13.816V66H0.622253V5.544H4.84625L29.4863 60.808L54.1263 5.544H58.2623Z" fill="white"/>
<path d="M182.359 23.44C180.599 18.8053 177.666 15.1093 173.559 12.352C169.511 9.59466 164.701 8.216 159.127 8.216C154.258 8.216 149.858 9.36 145.927 11.648C141.997 13.936 138.887 17.192 136.599 21.416C134.311 25.64 133.167 30.568 133.167 36.2C133.167 41.832 134.311 46.76 136.599 50.984C138.887 55.208 141.997 58.464 145.927 60.752C149.858 62.9813 154.258 64.096 159.127 64.096C163.821 64.096 168.074 63.04 171.887 60.928C175.701 58.816 178.751 55.824 181.039 51.952C183.327 48.0213 184.589 43.4453 184.823 38.224H157.279V34.88H188.871V37.52C188.695 43.2693 187.317 48.432 184.735 53.008C182.154 57.584 178.634 61.1627 174.175 63.744C169.717 66.3253 164.701 67.616 159.127 67.616C153.437 67.616 148.303 66.296 143.727 63.656C139.151 60.9573 135.573 57.232 132.991 52.48C130.41 47.6693 129.119 42.2427 129.119 36.2C129.119 30.0987 130.41 24.672 132.991 19.92C135.573 15.1093 139.151 11.384 143.727 8.74399C148.303 6.04533 153.437 4.696 159.127 4.696C165.757 4.696 171.477 6.368 176.287 9.712C181.157 12.9973 184.706 17.5733 186.935 23.44H182.359Z" fill="white"/>
<path d="M226.904 66L211.064 39.688H197.512V66H193.552V4.224H210.536C217.4 4.224 222.533 5.83733 225.936 9.064C229.397 12.2907 231.128 16.5733 231.128 21.912C231.128 26.664 229.779 30.5947 227.08 33.704C224.44 36.7547 220.568 38.632 215.464 39.336L231.656 66H226.904ZM197.512 36.344H210.712C216.168 36.344 220.245 35.024 222.944 32.384C225.643 29.744 226.992 26.2533 226.992 21.912C226.992 12.4667 221.507 7.74399 210.536 7.74399H197.512V36.344Z" fill="white"/>
<path d="M285.888 4.224V7.568H257.992V33.352H282.368V36.696H257.992V66H254.032V4.224H285.888Z" fill="white"/>
<path d="M342.215 62.656H365.183V66H338.255V4.224H342.215V62.656Z" fill="white"/>
<path d="M243.938 4.224V66H239.978V4.224H243.938Z" fill="white"/>
<path d="M333.515 4.224L314.067 41.008V66H310.107V41.008L290.483 4.224H294.971L312.043 37.312L329.027 4.224H333.515Z" fill="white"/>
<path d="M126.792 54.7917C126.645 54.272 126.303 53.8295 125.836 53.5575C125.37 53.2855 124.816 53.2051 124.292 53.3333L119.083 54.7917C121.941 50.5783 123.663 45.6988 124.083 40.625C124.496 35.9345 123.807 31.2124 122.071 26.8356C120.335 22.4588 117.599 18.5484 114.083 15.4167C113.694 15.0349 113.17 14.8211 112.625 14.8211C112.08 14.8211 111.556 15.0349 111.167 15.4167C110.908 15.6107 110.698 15.8624 110.553 16.1516C110.409 16.4409 110.333 16.7599 110.333 17.0833C110.333 17.4068 110.409 17.7257 110.553 18.015C110.698 18.3043 110.908 18.5559 111.167 18.75C114.225 21.4199 116.611 24.773 118.131 28.5375C119.652 32.3019 120.263 36.3717 119.917 40.4167C119.58 44.7336 118.146 48.8929 115.75 52.5L115.333 47.0833C115.278 46.5308 115.006 46.0228 114.576 45.6712C114.146 45.3196 113.594 45.1531 113.042 45.2083C112.489 45.2636 111.981 45.5361 111.63 45.9658C111.278 46.3956 111.111 46.9475 111.167 47.5L112.417 60.8333L125.333 57.5C125.853 57.3535 126.295 57.0109 126.568 56.5446C126.84 56.0782 126.92 55.5245 126.792 55" fill="#DD635B"/>
<path d="M65.9583 35.4167C66.2011 35.6167 66.486 35.7591 66.7917 35.8333C67.0657 35.8939 67.3491 35.8984 67.6249 35.8467C67.9007 35.795 68.1632 35.6881 68.3967 35.5325C68.6301 35.3768 68.8298 35.1756 68.9836 34.9409C69.1373 34.7062 69.2422 34.4429 69.2917 34.1667C70.1234 27.7973 73.336 21.9791 78.2832 17.8821C83.2305 13.7852 89.5456 11.7133 95.9583 12.0833L91.375 15.4167C91.0402 15.6538 90.7829 15.9846 90.6354 16.3674C90.4878 16.7502 90.4566 17.1681 90.5456 17.5686C90.6346 17.9691 90.8399 18.3344 91.1357 18.6187C91.4315 18.903 91.8046 19.0936 92.2083 19.1667C92.7295 19.2159 93.2502 19.0672 93.6667 18.75L104.708 11.0417L95.125 1.66667C95.0326 1.31983 94.8523 1.00274 94.6013 0.746131C94.3504 0.48952 94.0374 0.302092 93.6927 0.202017C93.348 0.101942 92.9833 0.0926139 92.634 0.174937C92.2846 0.25726 91.9625 0.428442 91.6987 0.671889C91.435 0.915337 91.2386 1.22279 91.1287 1.56445C91.0187 1.90611 90.9989 2.27038 91.0711 2.62196C91.1433 2.97353 91.3052 3.30049 91.5409 3.57113C91.7766 3.84176 92.0783 4.04691 92.4167 4.16667L95.9583 7.70833C88.5438 7.38803 81.2797 9.86626 75.6069 14.6514C69.9342 19.4366 66.2672 26.1792 65.3333 33.5417C65.259 33.9322 65.2979 34.3359 65.4456 34.7051C65.5932 35.0743 65.8435 35.3935 66.1667 35.625" fill="#DD635B"/>
<path d="M102.208 62.5C98.9656 63.4508 95.5637 63.7343 92.2083 63.3333C88.0585 62.9374 84.068 61.5351 80.5828 59.2479C77.0976 56.9607 74.223 53.8578 72.2083 50.2083L77.4167 52.2917C77.6766 52.3874 77.9528 52.431 78.2296 52.42C78.5063 52.4091 78.7782 52.3437 79.0297 52.2276C79.2812 52.1115 79.5074 51.947 79.6953 51.7436C79.8832 51.5401 80.0293 51.3016 80.125 51.0417C80.2208 50.7818 80.2644 50.5055 80.2534 50.2288C80.2424 49.952 80.177 49.6801 80.0609 49.4286C79.9448 49.1771 79.7804 48.951 79.5769 48.763C79.3734 48.5751 79.1349 48.4291 78.875 48.3333L69.2917 44.7917L66.1667 43.75L64.0833 56.875C63.9551 57.3995 64.0355 57.9532 64.3075 58.4196C64.5796 58.8859 65.022 59.2285 65.5417 59.375H65.9583C66.4457 59.3848 66.9211 59.2234 67.3018 58.9189C67.6825 58.6144 67.9443 58.186 68.0417 57.7083L68.875 52.7083C71.2411 56.8204 74.5551 60.308 78.5411 62.8808C82.5272 65.4537 87.07 67.0373 91.7917 67.5C95.7251 67.8779 99.6943 67.4527 103.458 66.25C103.94 66.0506 104.329 65.6778 104.55 65.2053C104.77 64.7328 104.805 64.1949 104.648 63.6978C104.491 63.2007 104.153 62.7805 103.702 62.5202C103.25 62.2599 102.717 62.1783 102.208 62.2917V62.5Z" fill="#DD635B"/>
<path d="M102.833 27.0833H86.1667C85.6141 27.0833 85.0842 27.3028 84.6935 27.6935C84.3028 28.0842 84.0833 28.6141 84.0833 29.1667V45.8333C84.0833 46.3859 84.3028 46.9158 84.6935 47.3065C85.0842 47.6972 85.6141 47.9167 86.1667 47.9167H102.833C103.386 47.9167 103.916 47.6972 104.306 47.3065C104.697 46.9158 104.917 46.3859 104.917 45.8333V29.1667C104.917 28.6141 104.697 28.0842 104.306 27.6935C103.916 27.3028 103.386 27.0833 102.833 27.0833ZM100.75 43.75H88.25V31.25H100.75V43.75Z" fill="#DD635B"/>
<path d="M404.992 47.5417C404.992 53.0361 403.2 57.8139 399.617 61.875C395.794 65.4583 391.136 67.25 385.642 67.25C380.386 67.25 375.847 65.3389 372.025 61.5167C368.203 57.6944 366.292 53.0361 366.292 47.5417V16.3667C366.292 12.5444 367.606 9.31944 370.233 6.69166C372.861 4.06389 376.086 2.75 379.908 2.75C383.969 2.75 387.194 4.06389 389.583 6.69166C391.972 9.31944 393.167 12.5444 393.167 16.3667V46.1083C393.167 48.2583 392.569 50.05 391.375 51.4833C389.703 52.9167 387.911 53.6333 386 53.6333C384.089 53.6333 382.178 52.9167 380.267 51.4833C378.833 50.05 378.117 48.2583 378.117 46.1083V16.3667H381.7V45.75C381.7 46.9444 382.058 47.9 382.775 48.6167C383.731 49.3333 384.686 49.6917 385.642 49.6917C386.836 49.6917 387.792 49.3333 388.508 48.6167C389.464 47.9 389.942 46.9444 389.942 45.75V16.3667C389.942 13.5 388.986 11.1111 387.075 9.2C385.164 7.28889 382.775 6.33333 379.908 6.33333C377.042 6.33333 374.653 7.28889 372.742 9.2C370.831 11.1111 369.875 13.5 369.875 16.3667V47.5417C369.875 52.0806 371.428 55.9028 374.533 59.0083C377.639 62.1139 381.461 63.6667 386 63.6667C390.3 63.6667 393.883 62.1139 396.75 59.0083C399.856 55.9028 401.408 52.0806 401.408 47.5417V16.3667H404.992V47.5417Z" fill="#DD635B"/>
</svg>
